<svg width="65" height="65" viewBox="0 0 65 65" fill="none" xmlns="http://www.w3.org/2000/svg">
<g clip-path="url(#clip0_660_2484)">
<path d="M11.8145 50.6458L3.07568 61.7217H61.7218L52.9843 50.6458H11.8145Z" fill="#2B2B2B"/>
<path d="M11.8145 40.7656L3.07568 50.3533H61.7218L52.9843 40.7656H11.8145Z" fill="#2B2B2B"/>
<path d="M11.7388 32.1284L3 40.2266H61.6461L52.9073 32.1284H11.7388Z" fill="#2B2B2B"/>
<path d="M11.7388 24.6228L3 31.2314H61.6461L52.9073 24.6228H11.7388Z" fill="#2B2B2B"/>
<path d="M11.7388 17.8159L3 22.9363H61.6461L52.9073 17.8159H11.7388Z" fill="#2B2B2B"/>
<path d="M11.7388 12.0051L3 15.636H61.6461L52.9073 12.0051H11.7388Z" fill="#2B2B2B"/>
<path d="M11.7388 7.10547L3 9.24804H61.6461L52.9073 7.10547H11.7388Z" fill="#2B2B2B"/>
<path d="M11.8145 3L3.07568 3.65306H61.7218L52.9843 3H11.8145Z" fill="#2B2B2B"/>
</g>
<defs>
<clipPath id="clip0_660_2484">
<rect width="58.7217" height="58.7217" fill="white" transform="translate(3 3)"/>
</clipPath>
</defs>
</svg>
