<svg width="80" height="80" viewBox="0 0 80 80" fill="none" xmlns="http://www.w3.org/2000/svg">
<g clip-path="url(#clip0_599_8053)">
<path d="M40 23.3626C58.3539 23.3626 73.7541 36.2081 77.7033 53.3789C79.1867 49.1967 80 44.6894 80 40C80 17.9057 62.0885 0 40 0C17.9115 0 0 17.9057 0 40C0 44.6959 0.806766 49.1967 2.29668 53.3789C6.24593 36.2081 21.6461 23.3626 40 23.3626Z" fill="#0A0A0A"/>
<path d="M7.38411 62.0489C7.38411 62.4391 7.39712 62.8164 7.41013 63.2001C14.6645 73.366 26.5513 80.0001 39.9931 80.0001C53.4349 80.0001 65.3282 73.3725 72.576 63.2001C72.5891 62.8164 72.5956 62.4391 72.5956 62.0489C72.5956 44.4554 58.5877 30.0684 41.1382 29.4635C40.7999 29.4505 40.468 29.444 40.1297 29.4375H39.8304C39.4921 29.4375 39.1603 29.4505 38.822 29.4635C21.3789 30.0749 7.37109 44.4619 7.37109 62.0489H7.38411ZM43.9879 46.9269C43.9879 45.7302 44.9573 44.7611 46.1544 44.7611H52.6411C53.8382 44.7611 54.8077 45.7302 54.8077 46.9269V63.8505C54.8077 65.0473 53.8382 66.0164 52.6411 66.0164H46.1544C44.9573 66.0164 43.9879 65.0473 43.9879 63.8505V46.9269ZM25.1915 46.9269C25.1915 45.7302 26.1609 44.7611 27.3581 44.7611H33.8447C35.0419 44.7611 36.0113 45.7302 36.0113 46.9269V63.8505C36.0113 65.0473 35.0419 66.0164 33.8447 66.0164H27.3581C26.1609 66.0164 25.1915 65.0473 25.1915 63.8505V46.9269Z" fill="#0A0A0A"/>
</g>
<defs>
<clipPath id="clip0_599_8053">
<rect width="80" height="80" fill="white"/>
</clipPath>
</defs>
</svg>
