<svg width="84" height="72" viewBox="0 0 84 72" fill="none" xmlns="http://www.w3.org/2000/svg">
<path d="M61.6922 15.8375C58.9697 15.8375 56.7637 18.0232 56.7637 20.7206V20.4488C56.7637 23.1462 54.5576 25.3319 51.8351 25.3319C49.1125 25.3319 46.9211 23.1607 46.9065 20.472V4.88308C46.9065 2.18568 44.7005 0 41.9779 0C40.6181 0 39.3867 0.546419 38.4938 1.4311C37.6009 2.31578 37.0494 3.53583 37.0494 4.88308V33.6843C36.7867 36.136 34.6945 38.047 32.1499 38.047C29.4274 38.047 27.2214 35.8613 27.2214 33.1639V20.6888C27.2214 17.9914 25.0154 15.8057 22.2928 15.8057C19.5703 15.8057 17.3643 17.9914 17.3643 20.6888V50.9038C17.3643 53.6012 19.5703 55.7869 22.2928 55.7869C23.6526 55.7869 24.884 55.2404 25.777 54.3558C26.667 53.474 27.2214 52.251 27.2214 50.9038V51.1755C27.2214 48.4781 29.4274 46.2925 32.1499 46.2925C33.5098 46.2925 34.7412 46.8389 35.6341 47.7236C36.4103 48.4926 36.9268 49.516 37.0494 50.6551V66.7702C37.0494 69.4676 39.2554 71.6504 41.975 71.6504C43.3348 71.6504 44.5692 71.104 45.4592 70.2193C46.3492 69.3375 46.9036 68.1146 46.9036 66.7673V38.4315C46.9182 35.7486 49.1184 33.5716 51.8322 33.5716C53.192 33.5716 54.4263 34.118 55.3163 35.0027C56.2063 35.8874 56.7607 37.1074 56.7607 38.4547V50.9298C56.7607 53.6272 58.9668 55.8129 61.6893 55.8129C63.0491 55.8129 64.2834 55.2665 65.1734 54.3818C66.0634 53.5 66.6178 52.2771 66.6178 50.9298V20.7148C66.6178 18.0174 64.4118 15.8317 61.6893 15.8317L61.6922 15.8375Z" fill="black"/>
<path d="M78.7812 40.6142C81.4382 39.9929 83.0838 37.3551 82.4567 34.7226C81.8296 32.0901 79.1672 30.4597 76.5102 31.081C73.8531 31.7024 72.2076 34.3401 72.8347 36.9726C73.4618 39.6051 76.1241 41.2355 78.7812 40.6142Z" fill="black"/>
<path d="M10.486 39.2922C12.4164 37.3796 12.4165 34.2786 10.486 32.366C8.55561 30.4534 5.42576 30.4534 3.49533 32.366C1.56491 34.2786 1.56492 37.3796 3.49534 39.2922C5.42577 41.2048 8.55559 41.2048 10.486 39.2922Z" fill="black"/>
</svg>
