<svg width="78" height="78" viewBox="0 0 78 78" fill="none" xmlns="http://www.w3.org/2000/svg">
<g clip-path="url(#clip0_599_8041)">
<path d="M78 60.1748L78 52.9431L39 40.9648L39 48.1965L78 60.1748Z" fill="#1B1B1C"/>
<path d="M39 60.1433L78 72.1216L78 69.7745L39 57.7962L39 60.1433Z" fill="#1B1B1C"/>
<path d="M39 73.2216L54.5587 78L58.2771 78L39 72.0798L39 73.2216Z" fill="#1B1B1C"/>
<path d="M3.73504e-07 21.622L39 9.64367L39 11.8613L3.47059e-07 23.8396L1.61348e-07 39.413L39 27.4347L39 33.7322L8.62514e-08 45.7105L0 52.9434L39 40.9651L39 34.6676L78 46.6446L78 31.0713L39 19.0942L39 16.8766L78 28.8537L78 0.000222183L39 0.000221718L6.31341e-07 0.000221252L3.73504e-07 21.622Z" fill="#1B1B1C"/>
<path d="M39 50.5645L2.79738e-08 62.5428L0 64.8887L39 52.9116L39 50.5645Z" fill="#1B1B1C"/>
<path d="M39 64.8467L1.36156e-08 76.825L0 77.9668L39 65.9897L39 64.8467Z" fill="#1B1B1C"/>
</g>
<defs>
<clipPath id="clip0_599_8041">
<rect width="78" height="78" fill="white" transform="translate(0 78) rotate(-90)"/>
</clipPath>
</defs>
</svg>
