<svg width="125" height="125" viewBox="0 0 125 125" fill="none" xmlns="http://www.w3.org/2000/svg">
<g clip-path="url(#clip0_306_6393)">
<path d="M18.3047 18.3056H106.694C82.2861 -6.10186 42.7121 -6.10186 18.3047 18.3056Z" fill="#231F20"/>
<path d="M18.3056 18.3057C-6.10186 42.7131 -6.10186 82.2871 18.3056 106.695V62.5158V18.3057Z" fill="#231F20"/>
<path d="M62.4852 18.3057C50.307 18.3057 39.2774 23.2451 31.293 31.2295H93.7088C85.7243 23.2451 74.6635 18.3057 62.4852 18.3057Z" fill="#231F20"/>
<path d="M106.694 18.3057V106.695H18.3047C42.7121 131.102 82.2861 131.102 106.694 106.695C131.101 82.2871 131.101 42.7131 106.694 18.3057Z" fill="#231F20"/>
<path d="M31.2286 62.5059C31.2325 79.7723 45.2307 93.7706 62.4972 93.7706H31.2912C39.2757 101.755 50.3052 106.694 62.4835 106.694C74.6617 106.694 85.7226 101.755 93.707 93.7706H62.5011C79.7694 93.7706 93.7677 79.7723 93.7697 62.5059V93.708C101.754 85.7235 106.694 74.694 106.694 62.5157C106.694 50.3374 101.754 39.2766 93.7697 31.2921V62.4942C93.7658 45.2278 79.7675 31.2295 62.4991 31.2295C45.2307 31.2295 31.2325 45.2258 31.2286 62.4942V31.2921C23.2441 39.2766 18.3047 50.3374 18.3047 62.5157C18.3047 74.694 23.2441 85.7235 31.2286 93.708V62.5059ZM40.3892 62.502C40.3892 74.7135 50.2895 84.61 62.4991 84.61C74.7087 84.61 84.6091 74.7116 84.6091 62.5C84.6091 50.2885 74.7107 40.3901 62.4991 40.3901C50.2876 40.3901 40.3892 50.2885 40.3892 62.4981V40.3901H84.611V84.6119H40.3892V62.504V62.502Z" fill="#231F20"/>
</g>
<defs>
<clipPath id="clip0_306_6393">
<rect width="125" height="125" fill="white"/>
</clipPath>
</defs>
</svg>
