<svg width="260" height="73" viewBox="0 0 260 73" fill="none" xmlns="http://www.w3.org/2000/svg">
<g clip-path="url(#clip0_184_5152)">
<path d="M98.0916 34.6839H81.4476C81.3492 34.6839 81.2835 34.7812 81.3163 34.846L82.1699 38.9631C82.6295 40.0977 83.7456 40.8757 84.9931 40.8757H91.0335C91.0991 40.8757 91.1648 40.9406 91.1648 41.0054V46.8406C91.1648 46.873 91.1648 46.9054 91.0992 46.9379C89.1295 48.6236 86.3719 49.434 82.7936 49.434C79.2153 49.434 78.2633 48.8829 76.2936 47.7483C74.3239 46.6137 72.7153 45.0576 71.5335 42.9829C70.3517 40.9406 69.7279 38.5416 69.7279 35.7861C69.7279 33.0306 70.2204 31.0207 71.238 28.9136C72.2229 26.8064 73.6673 25.1207 75.5385 23.824C77.4098 22.5597 79.6093 21.9113 82.137 21.9113C84.6648 21.9113 86.733 22.4624 88.4072 23.5322C90.0486 24.602 91.4603 25.9635 92.7077 27.7141C92.7406 27.7789 92.8391 27.7789 92.9047 27.7141L97.9274 23.3053C97.9931 23.2728 97.9931 23.1756 97.9274 23.1108C96.3845 21.0036 94.3163 19.1882 91.7885 17.697C89.2279 16.1733 86.0108 15.4277 82.137 15.4277C78.2633 15.4277 76.4249 15.9464 73.9628 17.0162C71.5007 18.086 69.3668 19.5448 67.5941 21.425C65.8214 23.3053 64.4426 25.4773 63.4577 27.941C62.4729 30.4048 61.9805 33.063 61.9805 35.8834C61.9805 38.7037 62.8012 43.0153 64.4426 46.0626C66.084 49.1099 68.4476 51.5088 71.5007 53.2918C74.5537 55.0747 78.2305 55.95 82.4981 55.95C86.7658 55.95 89.6875 55.3989 92.1497 54.3291C94.6118 53.2593 96.6143 52.0275 98.1244 50.6011C98.1244 50.6011 98.1572 50.5362 98.1572 50.5038V34.6839C98.1572 34.6191 98.0916 34.5543 98.0259 34.5543" fill="white"/>
<path d="M118.707 27.5515C118.182 27.4867 117.591 27.4219 116.902 27.4219C115.425 27.4219 114.144 27.6488 113.061 28.1026C111.978 28.5565 111.091 29.0752 110.369 29.6587C109.647 30.2422 109.056 30.8257 108.629 31.3768C108.531 29.4642 106.922 27.9406 104.985 27.9406H101.801V55.1391H108.728V40.4538C108.728 38.4439 109.417 36.823 110.796 35.6236C112.175 34.4241 113.816 33.8406 115.72 33.8406C117.624 33.8406 117.952 34.0027 118.904 34.3593L120.316 27.9081C119.758 27.7136 119.233 27.584 118.707 27.4867" fill="white"/>
<path d="M141.785 45.4801C141.227 46.8092 140.341 47.9115 139.192 48.8191C138.043 49.6944 136.566 50.1483 134.826 50.1483C133.086 50.1483 131.609 49.6944 130.46 48.8191C129.311 47.9439 128.457 46.8092 127.866 45.4801C127.308 44.151 127.013 42.8219 127.013 41.4927C127.013 40.1636 127.308 38.8669 127.866 37.5377C128.424 36.2086 129.311 35.1064 130.46 34.2311C131.609 33.3558 133.086 32.902 134.826 32.902C136.566 32.902 138.043 33.3558 139.192 34.2311C140.341 35.1064 141.195 36.2086 141.785 37.5377C142.344 38.8669 142.639 40.1636 142.639 41.4927C142.639 42.8219 142.344 44.1186 141.785 45.4801ZM142.573 28.9794C140.374 27.6503 137.78 27.002 134.859 27.002C131.937 27.002 129.344 27.6503 127.144 28.9794C124.945 30.3086 123.205 32.0591 121.957 34.2635C120.71 36.468 120.086 38.8993 120.086 41.5251C120.086 44.151 120.71 46.5823 121.957 48.7867C123.205 50.9911 124.945 52.7741 127.144 54.1033C129.344 55.4324 131.937 56.1132 134.859 56.1132C137.78 56.1132 140.374 55.4324 142.573 54.1033C144.773 52.7741 146.513 50.9911 147.76 48.7867C149.008 46.5823 149.631 44.151 149.631 41.5251C149.631 38.8993 149.008 36.468 147.76 34.2635C146.513 32.0591 144.773 30.3086 142.573 28.9794Z" fill="white"/>
<path d="M163.912 47.4245L158.101 32.1233C157.149 29.5947 154.72 27.9414 151.995 27.9414H148.516L160.202 55.14H167.261L178.882 27.9414H171.298L163.879 47.4245H163.912Z" fill="white"/>
<path d="M185.907 38.6712C185.907 37.7311 186.17 36.8234 186.728 35.9157C187.286 35.008 188.074 34.2624 189.092 33.6464C190.142 33.0629 191.422 32.7387 192.932 32.7387C194.443 32.7387 195.592 33.0305 196.511 33.6464C197.463 34.2624 198.152 35.008 198.645 35.9157C199.137 36.8234 199.367 37.7311 199.367 38.6712H185.842H185.907ZM203.536 31.9283C202.486 30.4371 201.074 29.2376 199.367 28.3623C197.627 27.4871 195.493 27.0332 192.965 27.0332C190.438 27.0332 187.811 27.6491 185.71 28.9134C183.609 30.1777 181.968 31.8635 180.786 34.003C179.604 36.1426 178.98 38.574 178.98 41.2322C178.98 43.8905 179.571 46.7108 180.786 48.9477C182.001 51.1845 183.708 52.935 185.874 54.1993C188.041 55.4636 190.602 56.0796 193.556 56.0796C196.511 56.0796 197.561 55.8527 199.104 55.3988C200.647 54.945 201.927 54.4263 202.912 53.8427C203.897 53.2592 204.685 52.6757 205.21 52.157C205.736 51.6383 206.064 51.3142 206.195 51.1845L202.42 47.0026C202.092 47.3268 201.599 47.7158 200.877 48.2345C200.188 48.7532 199.236 49.207 198.054 49.596C196.872 50.0174 195.395 50.212 193.589 50.212C191.783 50.212 191.193 49.9202 190.011 49.3691C188.829 48.818 187.877 48.04 187.089 47.035C186.334 46.0625 185.94 44.8954 185.94 43.5987H206.491V42.6262C206.491 40.6811 206.261 38.8009 205.801 36.9531C205.342 35.1052 204.554 33.4195 203.503 31.9283" fill="white"/>
<path d="M224.611 27.4242C223.134 27.4242 221.853 27.6511 220.77 28.105C219.687 28.5588 218.8 29.0775 218.078 29.661C217.356 30.2446 216.765 30.8281 216.338 31.3792C216.24 29.4665 214.631 27.9429 212.694 27.9429H209.51V55.1414H216.437V40.4562C216.437 38.4463 217.126 36.8254 218.505 35.6259C219.883 34.4265 221.525 33.8429 223.429 33.8429C225.333 33.8429 225.661 34.005 226.613 34.3616L228.025 27.9105C227.467 27.716 226.942 27.5863 226.416 27.489C225.891 27.4242 225.3 27.3594 224.611 27.3594" fill="white"/>
<path d="M102.162 16.7896C102.162 18.5725 102.523 19.9017 103.278 20.7445C104.033 21.6198 105.182 22.0412 106.758 22.0412C108.334 22.0412 108.432 21.9116 109.089 21.6522C109.746 21.3929 110.369 20.9715 110.993 20.3555L109.68 18.605C109.352 18.9291 108.991 19.1885 108.597 19.383C108.235 19.5451 107.743 19.6423 107.185 19.6423C106.627 19.6423 105.97 19.4154 105.576 18.9616C105.215 18.5077 105.018 17.6973 105.018 16.4978V9.20379H109.417V6.80487H105.018V1.97461H102.129V6.80487H99.4375V9.20379H102.129V16.7896H102.162Z" fill="white"/>
<path d="M114.834 14.7478C114.834 13.8077 114.966 12.8676 115.228 11.9923C115.491 11.117 115.95 10.3714 116.607 9.82031C117.263 9.2692 118.117 8.97744 119.233 8.97744C120.349 8.97744 121.137 9.30162 121.761 9.94998C122.385 10.5983 122.68 11.6033 122.68 12.9973V21.6528H125.569V12.7703C125.569 10.8577 125.109 9.33404 124.157 8.19942C123.205 7.06479 121.761 6.48127 119.791 6.48127C117.822 6.48127 118.084 6.61094 117.428 6.9027C116.771 7.19446 116.246 7.51864 115.819 7.90766C115.392 8.29667 115.064 8.68568 114.801 9.04228V0.386719H111.945V21.6204H114.834V14.7478Z" fill="white"/>
<path d="M130.986 10.9545C131.347 10.3386 131.839 9.81989 132.529 9.39846C133.185 9.00944 134.006 8.78252 134.925 8.78252C136.271 8.78252 137.289 9.17153 138.011 9.98198C138.733 10.7924 139.16 11.765 139.226 12.8996H130.395C130.428 12.1864 130.625 11.538 130.986 10.9221M131.183 21.0689C132.365 21.7496 133.743 22.0738 135.286 22.0738C136.829 22.0738 137.65 21.9117 138.536 21.5876C139.423 21.2634 140.145 20.8744 140.703 20.4854C141.261 20.0639 141.655 19.7397 141.852 19.4804L140.21 17.7623C139.882 18.1513 139.291 18.5727 138.438 18.9941C137.617 19.4156 136.567 19.6425 135.286 19.6425C134.006 19.6425 133.612 19.448 132.89 19.059C132.135 18.67 131.544 18.1189 131.084 17.4381C130.625 16.7573 130.395 15.9793 130.362 15.104H142.18C142.18 13.6128 141.918 12.1864 141.425 10.8573C140.933 9.52813 140.145 8.45834 139.061 7.64789C137.978 6.83745 136.567 6.41602 134.827 6.41602C133.087 6.41602 132.069 6.77261 130.953 7.45339C129.837 8.13416 128.95 9.07428 128.294 10.2413C127.67 11.4084 127.342 12.7051 127.342 14.1639C127.342 15.6227 127.67 17.1139 128.327 18.3134C128.983 19.5128 129.902 20.4529 131.084 21.1013" fill="white"/>
<path d="M252.319 27.7461L244.801 47.7155L237.251 27.7461H229.635L241.092 54.9447L234.034 72.0288H241.716L260.001 27.7461H252.319Z" fill="white"/>
<path d="M25.7383 66.6819C25.9681 66.6819 26.1979 66.5846 26.3948 66.4226L45.5009 47.5554C48.915 44.1839 51.1474 39.7103 51.4428 34.9124C51.7711 29.369 49.7358 24.1173 45.7964 20.2272L38.9681 13.4842C38.607 13.1276 38.0489 13.1276 37.6878 13.4842L26.5262 24.5063C26.0337 24.9926 25.7711 25.6409 25.7711 26.3541V37.1493C25.7711 37.7328 26.4933 37.9921 26.8873 37.6031L38.6398 26.192C42.6777 30.6333 42.5135 37.5059 38.1802 41.785L26.3948 53.423C26.2307 53.5851 26.0009 53.6823 25.7711 53.6823V66.6819H25.7383Z" fill="#53C2B3"/>
<path d="M25.0816 53.4226L13.2962 41.7846C8.8316 37.3757 8.79877 30.179 13.2634 25.7702C13.2634 25.7702 13.2634 25.7702 13.2962 25.7377L25.2457 13.9376C25.6397 13.5486 25.8366 13.0624 25.8366 12.5113V1.81338C25.8366 1.22986 25.1144 0.938102 24.6877 1.35953L5.64725 20.2267C-1.90325 27.6828 -1.90325 39.8071 5.64725 47.2632L25.0488 66.4221C25.2129 66.5842 25.4755 66.6814 25.7053 66.6814V53.6819C25.4755 53.6819 25.2457 53.5847 25.0488 53.4226" fill="#057A99" fill-opacity="0.58"/>
<path d="M134.104 68.7562H137.944V67.9781H134.104V65.6765H138.404V64.8984H133.25V71.9007H138.437V71.1227H134.104V68.7562Z" fill="white"/>
<path d="M113.783 65.7089H116.147V71.9007H117V65.7089H119.364V64.8984H113.783V65.7089Z" fill="white"/>
<path d="M127.867 70.8309L125.405 64.9309L125.372 64.8984H124.42L127.473 71.9331H128.228L131.248 64.9633V64.8984H130.329L127.867 70.8309Z" fill="white"/>
<path d="M122.352 64.8984H121.498V71.8683H122.352V64.8984Z" fill="white"/>
<path d="M109.943 64.8652H109.155L105.938 71.8351C105.938 71.8675 106.824 71.8675 106.824 71.8675L107.645 70.0521H111.42L112.241 71.8675H113.16L109.943 64.8652ZM111.092 69.3065H108.006L109.549 65.8702L111.092 69.3065Z" fill="white"/>
<path d="M96.8441 67.0056C96.8441 66.4545 96.6471 65.9358 96.286 65.6116C95.8264 65.1578 95.1042 64.8984 94.2835 64.8984H91.2305V71.8683H92.084V69.1776H94.0537L96.0891 71.8683H97.1396L94.9729 69.0479C96.1547 68.821 96.8441 68.0754 96.8441 67.0056ZM95.9577 67.038C95.9577 67.8809 95.2683 68.432 94.185 68.432H92.0512V65.6765H94.185C95.3012 65.6765 95.9577 66.1627 95.9577 67.0056V67.038Z" fill="white"/>
<path d="M100.027 68.7562H103.835V67.9781H100.027V65.6765H104.295V64.8984H99.1738V71.9007H104.328V71.1227H100.027V68.7562Z" fill="white"/>
<path d="M88.5704 70.2478C87.9466 70.8313 87.3229 71.2527 86.338 71.2527C84.8279 71.2527 83.6461 70.0208 83.6461 68.4324C83.6461 66.8115 84.7951 65.612 86.338 65.612C87.881 65.612 88.0451 66.0983 88.5047 66.5521L89.0956 65.9686C88.4719 65.3851 87.7168 64.834 86.338 64.834C84.3355 64.834 82.7598 66.4225 82.7598 68.4324C82.7598 70.5071 84.2699 72.0307 86.3052 72.0307C88.3406 72.0307 88.5375 71.4148 89.1285 70.7989L88.5704 70.2153V70.2478Z" fill="white"/>
<path d="M212.103 70.4095L207.737 64.9309V64.8984H206.949V71.9007H207.803V66.2924L212.267 71.8683V71.9007H212.957V64.8984H212.103V70.4095Z" fill="white"/>
<path d="M201.73 64.8652H200.942L197.725 71.8351C197.725 71.8675 198.611 71.8675 198.611 71.8675L199.432 70.0521H203.207L204.028 71.8675H204.947L201.73 64.8652ZM202.879 69.3065H199.793L201.336 65.8702L202.879 69.3065Z" fill="white"/>
<path d="M191.553 65.7089H193.916V71.9007H194.77V65.7089H197.134V64.8984H191.553V65.7089Z" fill="white"/>
<path d="M228.583 64.8984L226.219 68.3347L223.888 64.9309V64.8984H222.838L225.792 69.1452V71.9007H226.646V69.1128L229.568 64.9633L229.601 64.8984H228.583Z" fill="white"/>
<path d="M221.065 70.2478C220.441 70.8313 219.817 71.2527 218.832 71.2527C217.322 71.2527 216.14 70.0208 216.14 68.4324C216.14 66.8115 217.289 65.612 218.832 65.612C220.375 65.612 220.539 66.0983 220.999 66.5521L221.59 65.9686C220.966 65.3851 220.211 64.834 218.832 64.834C216.83 64.834 215.254 66.4225 215.254 68.4324C215.254 70.5071 216.764 72.0307 218.799 72.0307C220.835 72.0307 220.539 71.9011 221.623 70.7989L221.065 70.2153V70.2478Z" fill="white"/>
<path d="M156.23 64.8008C155.213 64.8008 154.293 65.1898 153.604 65.8706C152.947 66.5513 152.619 67.4266 152.619 68.3992C152.619 70.4739 154.162 71.9975 156.23 71.9975C158.298 71.9975 158.167 71.6085 158.857 70.9278C159.513 70.247 159.874 69.3717 159.874 68.3992C159.874 66.3244 158.331 64.8008 156.263 64.8008H156.23ZM158.955 68.3992C158.955 70.0201 157.773 71.2195 156.23 71.2195C154.687 71.2195 153.506 69.9876 153.506 68.3992C153.506 66.7783 154.687 65.5788 156.23 65.5788C157.773 65.5788 158.955 66.8107 158.955 68.3992Z" fill="white"/>
<path d="M187.023 64.8984H186.17V71.9007H190.963V71.1227H187.023V64.8984Z" fill="white"/>
<path d="M167.293 70.4095L162.927 64.9309V64.8984H162.139V71.9007H162.959V66.2924L167.457 71.8683V71.9007H168.146V64.8984H167.293V70.4095Z" fill="white"/>
<path d="M150.484 70.2478C149.861 70.8313 149.237 71.2527 148.252 71.2527C146.742 71.2527 145.56 70.0208 145.56 68.4324C145.56 66.8115 146.709 65.612 148.252 65.612C149.795 65.612 149.959 66.0983 150.419 66.5521L151.01 65.9686C150.386 65.3851 149.631 64.834 148.252 64.834C146.25 64.834 144.674 66.4225 144.674 68.4324C144.674 70.5071 146.184 72.0307 148.219 72.0307C150.255 72.0307 150.452 71.4148 151.043 70.7989L150.484 70.2153V70.2478Z" fill="white"/>
<path d="M182.788 68.9507C182.788 70.3771 182.033 71.1875 180.72 71.1875C179.407 71.1875 178.619 70.3446 178.619 68.8858V64.8984H177.766V68.9507C177.766 70.8633 178.882 71.9979 180.72 71.9979C182.559 71.9979 183.675 70.8309 183.675 68.9182V64.9309H182.821V68.9831L182.788 68.9507Z" fill="white"/>
<path d="M173.3 68.0109C171.724 67.6868 171.428 67.2977 171.428 66.6818C171.428 66.0334 172.019 65.5796 172.906 65.5796C173.792 65.5796 174.284 65.8065 174.908 66.3252L175.401 65.7093C174.645 65.0933 173.89 64.834 172.906 64.834C171.921 64.834 170.575 65.6444 170.575 66.7466C170.575 67.8488 171.231 68.4324 172.938 68.789C174.448 69.1131 174.744 69.4697 174.744 70.0857C174.744 70.7664 174.12 71.2527 173.201 71.2527C172.282 71.2527 171.592 70.961 170.805 70.2802L170.279 70.8637C171.133 71.6417 172.052 71.9983 173.168 71.9983C174.284 71.9983 175.597 71.1879 175.597 70.0208C175.597 68.951 174.908 68.3675 173.3 68.0109Z" fill="white"/>
<path d="M74.2574 64.9941H73.4695L70.2852 71.964C70.2852 71.9964 71.1715 71.9964 71.1715 71.9964L71.9922 70.181H75.7675L76.5882 71.9964H77.5074L74.2902 64.9941H74.2574ZM75.3735 69.403H72.2877L73.8306 65.9991L75.3735 69.403Z" fill="white"/>
</g>
<defs>
<clipPath id="clip0_184_5152">
<rect width="260" height="72" fill="white" transform="translate(0 0.386719)"/>
</clipPath>
</defs>
</svg>
