<?xml version="1.0" encoding="UTF-8"?>
<svg id="Layer_1" xmlns="http://www.w3.org/2000/svg" version="1.1" viewBox="0 0 792 222.1">
  <!-- Generator: Adobe Illustrator 29.4.0, SVG Export Plug-In . SVG Version: 2.1.0 Build 152)  -->
  <defs>
    <style>
      .st0 {
        fill: #53c2b3;
      }

      .st1 {
        fill: #2f2a2e;
      }

      .st2 {
        fill: #057a99;
      }
    </style>
  </defs>
  <g>
    <path class="st1" d="M298.8,105.8h-50.7c-.3,0-.5.3-.4.5l2.6,12.7c1.4,3.5,4.8,5.9,8.6,5.9h18.4c.2,0,.4.2.4.4v18c0,.1,0,.2-.2.3-6,5.2-14.4,7.7-25.3,7.7s-13.8-1.7-19.8-5.2c-6-3.5-10.9-8.3-14.5-14.7-3.6-6.3-5.5-13.7-5.5-22.2s1.5-14.7,4.6-21.2c3-6.5,7.4-11.7,13.1-15.7,5.7-3.9,12.4-5.9,20.1-5.9s14,1.7,19.1,5c5,3.3,9.3,7.5,13.1,12.9.1.2.4.2.6,0l15.3-13.6c.2-.1.2-.4,0-.6-4.7-6.5-11-12.1-18.7-16.7-7.8-4.7-17.6-7-29.4-7s-17.4,1.6-24.9,4.9c-7.5,3.3-14,7.8-19.4,13.6-5.4,5.8-9.6,12.5-12.6,20.1-3,7.6-4.5,15.8-4.5,24.5s2.5,22,7.5,31.4c5,9.4,12.2,16.8,21.5,22.3,9.3,5.5,20.5,8.2,33.5,8.2s21.9-1.7,29.4-5c7.5-3.3,13.6-7.1,18.2-11.5,0,0,.1-.2.1-.3v-48.8c0-.2-.2-.4-.4-.4"/>
    <path class="st1" d="M361.6,83.8c-1.6-.2-3.4-.4-5.5-.4-4.5,0-8.4.7-11.7,2.1-3.3,1.4-6,3-8.2,4.8-2.2,1.8-4,3.6-5.3,5.3-.3-5.9-5.2-10.6-11.1-10.6h-9.7v83.9h21.1v-45.3c0-6.2,2.1-11.2,6.3-14.9,4.2-3.7,9.2-5.5,15-5.5s6.8.5,9.7,1.6l4.3-19.9c-1.7-.6-3.3-1-4.9-1.3"/>
    <path class="st1" d="M431.9,139.1c-1.7,4.1-4.4,7.5-7.9,10.3-3.5,2.7-8,4.1-13.3,4.1s-9.8-1.4-13.3-4.1c-3.5-2.7-6.1-6.2-7.9-10.3-1.7-4.1-2.6-8.2-2.6-12.3s.9-8.1,2.6-12.2c1.7-4.1,4.4-7.5,7.9-10.2,3.5-2.7,8-4.1,13.3-4.1s9.8,1.4,13.3,4.1c3.5,2.7,6.1,6.1,7.9,10.2,1.7,4.1,2.6,8.1,2.6,12.2s-.9,8.1-2.6,12.3M434.3,88.2c-6.7-4.1-14.6-6.1-23.5-6.1s-16.8,2-23.5,6.1c-6.7,4.1-12,9.5-15.8,16.3-3.8,6.8-5.7,14.3-5.7,22.4s1.9,15.6,5.7,22.4c3.8,6.8,9.1,12.3,15.8,16.4,6.7,4.1,14.6,6.2,23.5,6.2s16.8-2.1,23.5-6.2c6.7-4.1,12-9.6,15.8-16.4,3.8-6.8,5.7-14.3,5.7-22.4s-1.9-15.6-5.7-22.4c-3.8-6.8-9.1-12.2-15.8-16.3"/>
    <path class="st1" d="M499.3,145.1l-17.7-47.2c-2.9-7.8-10.3-12.9-18.6-12.9h-10.6l35.6,83.9h21.5l35.4-83.9h-23.1l-22.6,60.1Z"/>
    <path class="st1" d="M566.3,118.1c0-2.9.8-5.7,2.5-8.5,1.7-2.8,4.1-5.1,7.2-7,3.2-1.8,7.1-2.8,11.7-2.8s8.1.9,10.9,2.8c2.9,1.9,5,4.2,6.5,7,1.5,2.8,2.2,5.6,2.2,8.5h-41.2ZM620,97.3c-3.2-4.6-7.5-8.3-12.7-11-5.3-2.7-11.8-4.1-19.5-4.1s-15.7,1.9-22.1,5.8c-6.4,3.9-11.4,9.1-15,15.7-3.6,6.6-5.5,14.1-5.5,22.3s1.8,16.9,5.5,23.8c3.7,6.9,8.9,12.3,15.5,16.2,6.6,3.9,14.4,5.8,23.4,5.8s12.2-.7,16.9-2.1c4.7-1.4,8.6-3,11.6-4.8,3-1.8,5.4-3.6,7-5.2,1.6-1.6,2.6-2.6,3-3l-11.5-12.9c-1,1-2.5,2.2-4.7,3.8-2.1,1.6-5,3-8.6,4.2-3.6,1.3-8.1,1.9-13.6,1.9s-7.3-.9-10.9-2.6c-3.6-1.7-6.5-4.1-8.9-7.2-2.3-3-3.5-6.6-3.5-10.6h62.6v-3c0-6-.7-11.8-2.1-17.5-1.4-5.7-3.8-10.9-7-15.5"/>
    <path class="st1" d="M684.2,83.4c-4.5,0-8.4.7-11.7,2.1-3.3,1.4-6,3-8.2,4.8-2.2,1.8-4,3.6-5.3,5.3-.3-5.9-5.2-10.6-11.1-10.6h-9.7v83.9h21.1v-45.3c0-6.2,2.1-11.2,6.3-14.9,4.2-3.7,9.2-5.5,15-5.5s6.8.5,9.7,1.6l4.3-19.9c-1.7-.6-3.3-1-4.9-1.3-1.6-.2-3.4-.4-5.5-.4"/>
    <path class="st1" d="M311.2,50.6c0,5.5,1.1,9.6,3.4,12.2,2.3,2.7,5.8,4,10.6,4s5.1-.4,7.1-1.2c2-.8,3.9-2.1,5.8-4l-4-5.4c-1,1-2.1,1.8-3.3,2.4-1.1.5-2.6.8-4.3.8s-3.7-.7-4.9-2.1c-1.1-1.4-1.7-3.9-1.7-7.6v-22.5h13.4v-7.4h-13.4V4.9h-8.8v14.9h-8.2v7.4h8.2v23.4Z"/>
    <path class="st1" d="M349.8,44.3c0-2.9.4-5.8,1.2-8.5.8-2.7,2.2-5,4.2-6.7,2-1.7,4.6-2.6,8-2.6s5.8,1,7.7,3c1.9,2,2.8,5.1,2.8,9.4v26.7h8.8v-27.4c0-5.9-1.4-10.6-4.3-14.1-2.9-3.5-7.3-5.3-13.3-5.3s-5.2.4-7.2,1.3c-2,.9-3.6,1.9-4.9,3.1-1.3,1.2-2.3,2.4-3.1,3.5V0h-8.7v65.5h8.8v-21.2Z"/>
    <path class="st1" d="M399,32.6c1.1-1.9,2.6-3.5,4.7-4.8,2-1.2,4.5-1.9,7.3-1.9,4.1,0,7.2,1.2,9.4,3.7,2.2,2.5,3.5,5.5,3.7,9h-26.9c.1-2.2.7-4.2,1.8-6.1M399.6,63.8c3.6,2.1,7.8,3.1,12.5,3.1s7.2-.5,9.9-1.5c2.7-1,4.9-2.2,6.6-3.4,1.7-1.3,2.9-2.3,3.5-3.1l-5-5.3c-1,1.2-2.8,2.5-5.4,3.8-2.5,1.3-5.7,2-9.6,2s-5.1-.6-7.3-1.8c-2.3-1.2-4.1-2.9-5.5-5-1.4-2.1-2.1-4.5-2.2-7.2h36c0-4.6-.8-9-2.3-13.1-1.5-4.1-3.9-7.4-7.2-9.9s-7.6-3.8-12.9-3.8-8.4,1.1-11.8,3.2c-3.4,2.1-6.1,5-8.1,8.6-1.9,3.6-2.9,7.6-2.9,12.1s1,9.1,3,12.8c2,3.7,4.8,6.6,8.4,8.6"/>
  </g>
  <polygon class="st1" points="768.6 84.4 745.7 146 722.7 84.4 699.5 84.4 734.4 168.3 712.9 221 736.3 221 792 84.4 768.6 84.4"/>
  <g>
    <path class="st0" d="M78.4,204.5c.7,0,1.4-.3,2-.8l58.2-58.2c10.4-10.4,17.2-24.2,18.1-39,1-17.1-5.2-33.3-17.2-45.3l-20.8-20.8c-1.1-1.1-2.8-1.1-3.9,0l-34,34c-1.5,1.5-2.3,3.5-2.3,5.7v33.3c0,1.8,2.2,2.6,3.4,1.4l35.8-35.2c12.3,13.7,11.8,34.9-1.4,48.1l-35.9,35.9c-.5.5-1.2.8-1.9.8v40.1Z"/>
    <path class="st2" d="M76.4,163.6l-35.9-35.9c-13.6-13.6-13.7-35.8-.1-49.4,0,0,0,0,.1-.1l36.4-36.4c1.2-1.2,1.8-2.7,1.8-4.4V4.4c0-1.8-2.2-2.7-3.5-1.4L17.2,61.2c-23,23-23,60.4,0,83.4l59.1,59.1c.5.5,1.3.8,2,.8s0,0,0,0v-40.1c-.7,0-1.4-.3-2-.8"/>
  </g>
  <g>
    <polygon class="st2" points="408.5 210.9 420.2 210.9 420.2 208.5 408.5 208.5 408.5 201.4 421.6 201.4 421.6 199 405.9 199 405.9 220.6 421.7 220.6 421.7 218.2 408.5 218.2 408.5 210.9"/>
    <polygon class="st2" points="346.6 201.5 353.8 201.5 353.8 220.6 356.4 220.6 356.4 201.5 363.6 201.5 363.6 199 346.6 199 346.6 201.5"/>
    <polygon class="st2" points="389.5 217.3 382 199.1 381.9 199 379 199 388.3 220.7 388.3 220.7 390.6 220.7 399.8 199.2 399.8 199 397 199 389.5 217.3"/>
    <rect class="st2" x="370.1" y="199" width="2.6" height="21.5"/>
    <path class="st2" d="M334.9,198.9h-2.4l-9.8,21.5h0c0,.1,2.7.1,2.7.1l2.5-5.6h11.5l2.5,5.6h0c0,0,2.8,0,2.8,0l-9.8-21.6h0ZM338.4,212.6h-9.4l4.7-10.6,4.7,10.6Z"/>
    <path class="st2" d="M295,205.5h0c0-1.7-.6-3.3-1.7-4.3-1.4-1.4-3.6-2.2-6.1-2.2h-9.3v21.5h2.6v-8.3h6l6.2,8.3h0s3.2,0,3.2,0l-6.6-8.7c3.6-.7,5.7-3,5.7-6.3ZM292.3,205.6c0,2.6-2.1,4.3-5.4,4.3h-6.5v-8.5h6.5c3.4,0,5.4,1.5,5.4,4.1h0Z"/>
    <polygon class="st2" points="304.7 210.9 316.3 210.9 316.3 208.5 304.7 208.5 304.7 201.4 317.7 201.4 317.7 199 302.1 199 302.1 220.6 317.8 220.6 317.8 218.2 304.7 218.2 304.7 210.9"/>
    <path class="st2" d="M269.8,215.5c-1.9,1.8-3.8,3.1-6.8,3.1-4.6,0-8.2-3.8-8.2-8.7h0c0-5,3.5-8.7,8.2-8.7s5.2,1.5,6.6,2.9h0c0,0,1.8-1.8,1.8-1.8h0c-1.9-1.8-4.2-3.5-8.4-3.5-6.1,0-10.9,4.9-10.9,11.1h0c0,6.4,4.6,11.1,10.8,11.1s6.8-1.9,8.6-3.8h0c0,0-1.7-1.8-1.7-1.8h0Z"/>
    <polygon class="st2" points="646.1 216 632.8 199.1 632.8 199 630.4 199 630.4 220.6 633 220.6 633 203.3 646.6 220.5 646.6 220.6 648.7 220.6 648.7 199 646.1 199 646.1 216"/>
    <path class="st2" d="M614.5,198.9h-2.4l-9.8,21.5h0c0,.1,2.7.1,2.7.1l2.5-5.6h11.5l2.5,5.6h0c0,0,2.8,0,2.8,0l-9.8-21.6h0ZM618,212.6h-9.4l4.7-10.6,4.7,10.6Z"/>
    <polygon class="st2" points="583.5 201.5 590.7 201.5 590.7 220.6 593.3 220.6 593.3 201.5 600.5 201.5 600.5 199 583.5 199 583.5 201.5"/>
    <polygon class="st2" points="696.3 199 689.1 209.6 682 199.1 682 199 678.8 199 687.8 212.1 687.8 220.6 690.4 220.6 690.4 212 699.3 199.2 699.4 199 696.3 199"/>
    <path class="st2" d="M673.4,215.5c-1.9,1.8-3.8,3.1-6.8,3.1-4.6,0-8.2-3.8-8.2-8.7h0c0-5,3.5-8.7,8.2-8.7s5.2,1.5,6.6,2.9h0c0,0,1.8-1.8,1.8-1.8h0c-1.9-1.8-4.2-3.5-8.4-3.5-6.1,0-10.9,4.9-10.9,11.1h0c0,6.4,4.6,11.1,10.8,11.1s5.3-.4,8.6-3.8h0c0,0-1.7-1.8-1.7-1.8h0Z"/>
    <path class="st2" d="M475.9,198.7c-3.1,0-5.9,1.2-8,3.3-2,2.1-3,4.8-3,7.8h0c0,6.4,4.7,11.1,11,11.1s5.9-1.2,8-3.3c2-2.1,3.1-4.8,3.1-7.8h0c0-6.4-4.7-11.1-11-11.1ZM484.2,209.8h0c0,5-3.6,8.7-8.3,8.7s-8.3-3.8-8.3-8.7h0c0-5,3.6-8.7,8.3-8.7s8.3,3.8,8.3,8.7Z"/>
    <polygon class="st2" points="569.7 199 567.1 199 567.1 220.6 581.7 220.6 581.7 218.2 569.7 218.2 569.7 199"/>
    <polygon class="st2" points="509.6 216 496.3 199.1 496.3 199 493.9 199 493.9 220.6 496.4 220.6 496.4 203.3 510.1 220.5 510.1 220.6 512.2 220.6 512.2 199 509.6 199 509.6 216"/>
    <path class="st2" d="M458.4,215.5c-1.9,1.8-3.8,3.1-6.8,3.1-4.6,0-8.2-3.8-8.2-8.7h0c0-5,3.5-8.7,8.2-8.7s5.2,1.5,6.6,2.9h0c0,0,1.8-1.8,1.8-1.8h0c-1.9-1.8-4.2-3.5-8.4-3.5-6.1,0-10.9,4.9-10.9,11.1h0c0,6.4,4.6,11.1,10.8,11.1s6.8-1.9,8.6-3.8h0c0,0-1.7-1.8-1.7-1.8h0Z"/>
    <path class="st2" d="M556.8,211.5c0,4.4-2.3,6.9-6.3,6.9s-6.4-2.6-6.4-7.1v-12.3h-2.6v12.5c0,5.9,3.4,9.4,9,9.4s9-3.6,9-9.5v-12.3h-2.6v12.5Z"/>
    <path class="st2" d="M527.9,208.6c-4.8-1-5.7-2.2-5.7-4.1h0c0-2,1.8-3.4,4.5-3.4s4.2.7,6.1,2.3h0c0,0,1.5-1.9,1.5-1.9h0c-2.3-1.9-4.6-2.7-7.6-2.7s-7.1,2.5-7.1,5.9h0c0,3.4,2,5.2,7.2,6.3,4.6,1,5.5,2.1,5.5,4h0c0,2.1-1.9,3.6-4.7,3.6s-4.9-.9-7.3-3h0c0,0-1.6,1.8-1.6,1.8h0c2.6,2.4,5.4,3.5,8.8,3.5s7.4-2.5,7.4-6.1h0c0-3.3-2.1-5.1-7-6.2Z"/>
    <path class="st2" d="M226.2,199.3h-2.4l-9.7,21.5h0c0,.1,2.7.1,2.7.1l2.5-5.6h11.5l2.5,5.6h0c0,0,2.8,0,2.8,0l-9.8-21.6h0ZM229.6,212.9h-9.4l4.7-10.5,4.7,10.5Z"/>
  </g>
</svg>