<?xml version="1.0" encoding="UTF-8"?>
<svg id="Layer_1" xmlns="http://www.w3.org/2000/svg" version="1.1" viewBox="0 0 322 425">
  <!-- Generator: Adobe Illustrator 30.0.0, SVG Export Plug-In . SVG Version: 2.1.1 Build 123)  -->
  <defs>
    <style>
      .st0 {
        fill: #007a99;
      }

      .st1 {
        fill: #00dfc3;
      }
    </style>
  </defs>
  <path class="st1" d="M160.7,419.8c1.4,0,2.9-.6,4.1-1.7l119.8-119.3c21.5-21.4,35.5-49.7,37.3-80,2.1-35-10.6-68.4-35.3-93l-42.9-42.7c-2.3-2.2-5.9-2.2-8,0l-70.1,69.8c-3.1,3-4.8,7.3-4.8,11.5v68.4c0,3.6,4.4,5.4,7,2.9l73.7-72.2c25.3,28.2,24.3,71.7-2.8,98.6l-73.8,73.6c-1.1,1.1-2.6,1.6-4,1.7v82.4h0Z"/>
  <path class="st0" d="M156.6,335.8l-73.6-73.6c-27.9-27.9-28-73.4-.2-101.4,0,0,.2-.2.2-.3l74.6-74.6c2.4-2.4,3.7-5.6,3.7-9V9.3c0-3.7-4.5-5.5-7.1-2.9L35.3,125.9c-47.1,47.1-47.1,123.8,0,171l121.3,121.3c1.1,1.1,2.6,1.7,4,1.7h0v-82.4c-1.4,0-2.9-.6-4.1-1.6h0Z"/>
</svg>