<?xml version="1.0" encoding="UTF-8"?>
<svg id="Layer_1" xmlns="http://www.w3.org/2000/svg" version="1.1" viewBox="0 0 322 425">
  <!-- Generator: Adobe Illustrator 30.0.0, SVG Export Plug-In . SVG Version: 2.1.1 Build 123)  -->
  <defs>
    <style>
      .st0 {
        fill: #007a99;
      }

      .st1 {
        fill: #00dfc3;
      }
    </style>
  </defs>
  <path class="st1" d="M169.7,438c1.5,0,3.1-.6,4.3-1.8l126.5-126c22.7-22.6,37.5-52.5,39.4-84.5,2.2-37-11.2-72.2-37.3-98.2l-45.3-45.1c-2.4-2.3-6.2-2.3-8.5,0l-74,73.7c-3.3,3.2-5.1,7.7-5.1,12.2v72.2c0,3.8,4.7,5.7,7.4,3.1l77.9-76.3c26.7,29.8,25.7,75.7-3,104.2l-78,77.7c-1.2,1.2-2.7,1.7-4.2,1.8v87s0,0,0,0Z"/>
  <path class="st0" d="M165.4,349.3l-77.7-77.7c-29.5-29.5-29.6-77.5-.2-107.1,0,0,.2-.2.2-.3l78.8-78.8c2.5-2.5,3.9-5.9,3.9-9.5V4.4c0-3.9-4.8-5.8-7.5-3.1L37.3,127.6c-49.8,49.8-49.8,130.8,0,180.6l128.1,128.1c1.2,1.2,2.7,1.8,4.2,1.8h0v-87c-1.5,0-3.1-.6-4.3-1.7h0Z"/>
</svg>